<?xml version="1.0" standalone="no"?>
<!DOCTYPE svg PUBLIC "-//W3C//DTD SVG 20010904//EN"
 "http://www.w3.org/TR/2001/REC-SVG-20010904/DTD/svg10.dtd">
<svg version="1.0" xmlns="http://www.w3.org/2000/svg"
 width="567.000000pt" height="117.000000pt" viewBox="0 0 567.000000 117.000000"
 preserveAspectRatio="xMidYMid meet">

<g transform="translate(0.000000,117.000000) scale(0.100000,-0.100000)"
fill="#000000" stroke="none">
<path d="M691 1159 c-180 -35 -333 -192 -359 -369 -7 -44 -8 -44 -69 -66 -82
-28 -134 -63 -182 -124 -78 -99 -98 -242 -51 -365 32 -82 122 -173 205 -206
59 -24 64 -24 460 -27 440 -3 494 1 593 49 241 117 340 408 218 647 -52 103
-173 206 -279 237 -39 12 -61 28 -107 78 -113 123 -271 177 -429 146z m216
-154 c75 -34 113 -66 153 -129 32 -50 39 -55 80 -61 111 -16 214 -94 267 -203
22 -47 28 -71 28 -132 0 -65 -4 -84 -32 -141 -39 -79 -102 -140 -181 -177
l-57 -27 -415 -3 c-308 -2 -427 0 -460 10 -58 16 -131 87 -148 144 -27 92 -11
170 48 238 45 51 99 76 180 83 l67 6 6 77 c8 107 38 179 98 241 100 103 238
131 366 74z"/>
<path d="M856 626 l-123 -115 -34 35 c-55 57 -129 39 -129 -31 0 -21 15 -44
63 -92 84 -83 110 -85 194 -14 87 74 230 223 238 249 5 17 -1 29 -24 52 -16
17 -37 30 -46 30 -9 0 -71 -51 -139 -114z"/>
<path d="M2105 916 c-70 -18 -110 -41 -162 -92 -68 -69 -97 -140 -97 -244 0
-73 4 -94 28 -148 37 -79 114 -153 188 -178 74 -26 179 -24 241 4 l47 21 0 50
c0 48 -11 64 -26 40 -14 -24 -90 -49 -148 -49 -138 0 -246 114 -246 260 0 196
195 319 364 231 l56 -30 0 50 c0 49 -1 50 -43 69 -58 26 -140 32 -202 16z"/>
<path d="M2665 916 c-70 -18 -110 -41 -162 -92 -68 -69 -97 -140 -97 -244 0
-73 4 -94 28 -148 37 -79 114 -153 188 -178 74 -26 179 -24 241 4 l47 21 0 50
c0 48 -11 64 -26 40 -14 -24 -90 -49 -148 -49 -138 0 -246 114 -246 260 0 196
195 319 364 231 l56 -30 0 50 c0 49 -1 50 -43 69 -58 26 -140 32 -202 16z"/>
<path d="M4473 910 c-260 -54 -358 -383 -170 -570 53 -54 100 -77 184 -91 70
-12 123 -4 211 32 32 13 34 13 54 -14 17 -24 26 -27 76 -27 l56 0 -49 50 c-43
44 -48 53 -37 68 65 90 87 158 79 249 -15 196 -211 343 -404 303z m165 -95
c49 -21 110 -80 133 -130 26 -56 25 -156 -2 -211 -35 -73 -43 -74 -102 -16
-48 48 -56 52 -100 52 -26 0 -47 -4 -47 -9 0 -5 33 -38 73 -74 l72 -66 -37
-15 c-127 -54 -292 30 -329 167 -15 55 -6 134 20 185 24 47 84 101 132 118 48
18 143 17 187 -1z"/>
<path d="M3000 580 l0 -330 45 0 45 0 0 134 0 133 62 7 c76 8 141 38 170 79
18 25 24 49 26 107 3 65 1 79 -20 109 -13 19 -37 43 -53 52 -35 21 -136 39
-217 39 l-58 0 0 -330z m197 229 c48 -18 73 -49 73 -89 0 -66 -55 -110 -140
-110 l-40 0 0 105 0 105 39 0 c22 0 52 -5 68 -11z"/>
<path d="M3420 580 l0 -330 45 0 45 0 0 139 c0 99 4 142 13 149 9 8 41 -25
132 -139 l120 -149 58 0 58 0 -72 87 c-40 49 -106 130 -147 181 l-74 92 142
150 142 150 -55 0 -55 0 -131 -137 -131 -138 0 91 c0 50 -3 112 -6 138 -7 46
-7 46 -45 46 l-39 0 0 -330z"/>
<path d="M4960 582 l0 -332 45 0 45 0 0 140 c0 81 4 140 9 140 6 0 53 -63 106
-140 l96 -140 54 0 55 0 -100 138 c-55 76 -100 141 -100 144 0 3 11 9 25 12
34 9 90 60 105 96 7 17 11 56 8 93 -7 120 -68 164 -242 174 l-106 6 0 -331z
m204 224 c43 -18 66 -51 66 -96 0 -66 -53 -110 -135 -110 l-45 0 0 110 0 110
40 0 c22 0 56 -6 74 -14z"/>
</g>
</svg>
